<?xml version="1.0" encoding="UTF-8"?>
<svg width="60px" height="103px" viewBox="0 0 60 103" version="1.1" xmlns="http://www.w3.org/2000/svg" xmlns:xlink="http://www.w3.org/1999/xlink">
    <!-- Generator: Sketch 49.3 (51167) - http://www.bohemiancoding.com/sketch -->
    <title>Logo</title>
    <desc>Created with Sketch.</desc>
    <defs>
        <polygon id="path-1" points="0.765875 0.191125 5.9025 0.191125 5.9025 7.364875 0.765875 7.364875"></polygon>
        <polygon id="path-3" points="1.061 0.205 49.896 0.205 49.896 58.6685 1.061 58.6685"></polygon>
    </defs>
    <g id="Navigation-|-Search-|-My-Prospectus" stroke="none" stroke-width="1" fill="none" fill-rule="evenodd">
        <g id="Navigation---Full-Colour" transform="translate(-610.000000, -34.000000)">
            <g id="Coloured-Nav" transform="translate(56.000000, 33.000000)">
                <g id="Logo" transform="translate(554.000000, 0.000000)">
                    <path d="M5.349,103.411 L5.349,98.7485 C5.349,98.22725 5.36775,97.9085 5.39775,97.41475 L5.3765,97.41475 C5.214,97.81225 5.04025,98.14975 4.8665,98.516 L3.49525,101.431 L2.749,101.431 L1.39025,98.516 C1.2265,98.14975 1.0515,97.78225 0.879,97.41475 L0.86025,97.41475 C0.879,97.9085 0.89775,98.21725 0.89775,98.7485 L0.89775,103.411 L0.02025,103.411 L0.02025,96.2385 L1.18775,96.2385 L2.67525,99.47225 C2.819,99.781 2.964,100.1285 3.099,100.436 L3.119,100.436 C3.254,100.11725 3.41775,99.771 3.56275,99.45225 L5.06775,96.2385 L6.22775,96.2385 L6.22775,103.411 L5.349,103.411 Z" id="Fill-1" fill="#D71921"></path>
                    <path d="M10.5235,98.158375 C10.39725,97.772125 10.311,97.405875 10.2335,96.982125 L10.136,96.982125 C10.04975,97.405875 9.9735,97.772125 9.84725,98.158375 L9.16225,100.253375 L11.19975,100.253375 L10.5235,98.158375 Z M12.2135,103.410875 L11.46975,101.064625 L8.90225,101.064625 L8.1385,103.410875 L7.241,103.410875 L9.58725,96.237125 L10.81225,96.237125 L13.1585,103.410875 L12.2135,103.410875 Z" id="Fill-3" fill="#D71921"></path>
                    <path d="M17.938125,103.411 L15.409375,98.26475 C15.234375,97.9085 15.013125,97.4735 14.829375,97.04725 L14.809375,97.04725 C14.839375,97.52225 14.858125,98.0435 14.858125,98.5435 L14.858125,103.411 L14.028125,103.411 L14.028125,96.2385 L15.301875,96.2385 L17.803125,101.2485 C17.976875,101.596 18.208125,102.08725 18.380625,102.47475 L18.401875,102.47475 C18.363125,101.90475 18.353125,101.34475 18.353125,100.89975 L18.353125,96.2385 L19.203125,96.2385 L19.203125,103.411 L17.938125,103.411 Z" id="Fill-5" fill="#D71921"></path>
                    <path d="M23.3055,103.54525 C21.6655,103.54525 20.4105,102.93775 20.4105,100.41775 L20.4105,99.23025 C20.4105,96.71025 21.6655,96.12275 23.3055,96.12275 C23.96175,96.12275 24.67675,96.23775 24.9655,96.28525 L24.9655,97.009 C24.52175,96.97025 23.83675,96.91275 23.3055,96.91275 C21.95425,96.91275 21.298,97.46525 21.298,99.23025 L21.298,100.41775 C21.298,102.184 21.95425,102.744 23.3055,102.744 C23.83675,102.744 24.52175,102.69525 24.9655,102.65775 L24.9655,103.3815 C24.67675,103.429 23.96175,103.54525 23.3055,103.54525" id="Fill-7" fill="#D71921"></path>
                    <polygon id="Fill-9" fill="#D71921" points="30.507625 103.411 30.507625 100.02225 26.916375 100.02225 26.916375 103.411 26.028875 103.411 26.028875 96.2385 26.916375 96.2385 26.916375 99.21975 30.507625 99.21975 30.507625 96.2385 31.396375 96.2385 31.396375 103.411"></polygon>
                    <polygon id="Fill-11" fill="#D71921" points="32.844125 103.411 32.844125 96.2385 37.090375 96.2385 37.090375 97.0285 33.732875 97.0285 33.732875 99.28725 36.887875 99.28725 36.887875 100.08975 33.732875 100.08975 33.732875 102.6285 37.090375 102.6285 37.090375 103.411"></polygon>
                    <polygon id="Fill-13" fill="#D71921" points="46.031375 97.028 46.031375 103.4105 45.143875 103.4105 45.143875 97.028 42.932625 97.028 42.932625 96.23675 48.242625 96.23675 48.242625 97.028"></polygon>
                    <polygon id="Fill-15" fill="#D71921" points="49.062375 103.411 49.062375 96.2385 53.309875 96.2385 53.309875 97.0285 49.949875 97.0285 49.949875 99.28725 53.107375 99.28725 53.107375 100.08975 49.949875 100.08975 49.949875 102.6285 53.309875 102.6285 53.309875 103.411"></polygon>
                    <g id="Group-19" transform="translate(53.750000, 96.045625)">
                        <mask id="mask-2" fill="white">
                            <use xlink:href="#path-1"></use>
                        </mask>
                        <g id="Clip-18"></g>
                        <path d="M2.457125,0.982375 L1.654625,0.982375 L1.654625,3.792375 L2.484625,3.792375 C3.885875,3.792375 4.552125,3.512375 4.552125,2.382375 C4.552125,1.186125 3.845875,0.982375 2.457125,0.982375 Z M4.850875,7.364875 L3.160875,4.564875 C2.968375,4.573625 2.697125,4.573625 2.484625,4.573625 L1.654625,4.573625 L1.654625,7.364875 L0.765875,7.364875 L0.765875,0.191125 L2.457125,0.191125 C4.117125,0.191125 5.449625,0.539875 5.449625,2.382375 C5.449625,3.531125 4.937125,4.092375 4.105875,4.382375 L5.903375,7.364875 L4.850875,7.364875 Z" id="Fill-17" fill="#D71921" mask="url(#mask-2)"></path>
                    </g>
                    <path d="M41.155875,99.59625 L39.922125,99.05625 C39.157125,98.7175 38.954625,98.41 38.954625,97.85875 C38.954625,97.11625 39.485875,96.8925 40.432125,96.8925 C40.993375,96.8925 41.637125,96.94375 42.093375,96.98875 L42.093375,96.2575 C41.702125,96.1925 41.052125,96.1225 40.402125,96.1225 C38.830875,96.1225 38.057125,96.68125 38.057125,97.85875 C38.057125,98.8525 38.578375,99.37375 39.533375,99.79875 L40.760875,100.35125 C41.522125,100.69625 41.734625,101.02625 41.734625,101.59625 C41.734625,102.435 41.243375,102.7725 40.267125,102.7725 C39.458375,102.7725 38.790875,102.71375 38.220875,102.6475 L38.220875,103.3425 C38.482125,103.41125 39.399625,103.545 40.267125,103.545 C41.852125,103.545 42.642125,102.84125 42.642125,101.59625 C42.642125,100.59 42.160875,100.04 41.155875,99.59625" id="Fill-20" fill="#D71921"></path>
                    <path d="M3.841375,92.95075 C2.608875,92.95075 1.315125,92.6795 0.178875,92.08075 C0.081375,92.0295 0.035125,92.00075 0.035125,91.882 L0.015125,90.31075 C0.015125,90.212 0.080125,90.06325 0.196375,90.112 C1.737625,90.76575 2.233875,90.89575 3.270125,90.942 C4.701375,91.0045 6.253875,90.62325 6.253875,89.15325 C6.253875,86.24825 0.000125,86.9245 0.000125,82.53075 C0.000125,79.467 2.893875,78.9295 5.323875,78.9295 C6.522625,78.9295 7.930125,79.33075 8.565125,79.6195 L8.691375,79.7795 L8.691375,79.81825 L8.475125,81.3495 L8.332625,81.467 L8.295125,81.467 C7.281375,81.12825 6.538875,80.9345 5.771375,80.897 C4.381375,80.83325 3.018875,81.117 3.018875,82.39075 C3.018875,84.677 9.291375,84.3995 9.291375,88.6345 C9.291375,91.97575 6.771375,92.95075 3.841375,92.95075" id="Fill-22" fill="#231F20"></path>
                    <path d="M16.946875,87.342875 C16.946875,87.222875 16.910625,87.184125 16.768125,87.184125 L15.410625,87.184125 C14.000625,87.184125 13.248125,87.561625 13.248125,88.932875 C13.248125,90.404125 14.016875,90.860375 15.410625,90.860375 L16.750625,90.860375 C16.910625,90.860375 16.946875,90.802875 16.946875,90.662875 L16.946875,87.342875 Z M19.878125,92.214125 C19.878125,92.354125 19.841875,92.452875 19.664375,92.494125 C18.305625,92.672875 16.624375,92.930375 15.089375,92.930375 C12.265625,92.930375 10.246875,92.074125 10.246875,89.031625 C10.246875,86.049125 12.211875,85.334125 14.480625,85.334125 C15.178125,85.334125 16.340625,85.472875 16.910625,85.551625 C16.910625,83.762875 16.285625,83.045375 14.230625,83.045375 C13.551875,83.045375 12.623125,83.126625 11.853125,83.186625 L11.801875,83.186625 C11.675625,83.186625 11.640625,83.126625 11.605625,83.005375 L11.443125,81.575375 L11.443125,81.535375 L11.585625,81.375375 C12.515625,81.257875 14.070625,81.137875 15.214375,81.137875 C18.055625,81.137875 19.878125,82.270375 19.878125,85.451625 L19.878125,92.214125 Z" id="Fill-24" fill="#231F20"></path>
                    <path d="M24.37,92.69075 L21.745,92.69075 C21.61875,92.69075 21.58375,92.632 21.58375,92.4945 L21.58375,77.61575 C21.58375,77.4995 21.61875,77.4395 21.745,77.39825 L24.3525,77.1995 C24.4775,77.1995 24.55,77.25825 24.55,77.39825 L24.55,92.4945 C24.55,92.632 24.51375,92.69075 24.37,92.69075" id="Fill-26" fill="#231F20"></path>
                    <path d="M37.22275,82.947125 C35.52525,82.947125 34.91775,84.062125 34.91775,87.104625 C34.91775,89.987125 35.579,91.060875 37.22275,91.060875 C38.90275,91.060875 39.51025,89.948375 39.51025,87.104625 C39.51025,84.040875 38.90275,82.947125 37.22275,82.947125 M37.22275,92.910875 C33.899,92.910875 31.934,90.960875 31.934,87.123375 C31.934,82.947125 34.02525,81.157125 37.22275,81.157125 C40.4215,81.157125 42.49525,82.907125 42.49525,87.123375 C42.49525,90.942125 40.54775,92.910875 37.22275,92.910875" id="Fill-28" fill="#231F20"></path>
                    <path d="M56.096,83.186375 C55.616,83.146375 55.186,83.105125 54.65225,83.105125 C52.9685,83.105125 52.05975,84.257625 52.05975,86.985125 C52.05975,89.687625 53.05975,90.861375 54.8285,90.861375 C55.2385,90.861375 55.75725,90.802625 56.096,90.742625 L56.241,90.523875 L56.241,83.405125 C56.241,83.285125 56.18475,83.205125 56.096,83.186375 M58.976,92.472625 C57.70475,92.691375 56.401,92.930125 54.8285,92.930125 C51.451,92.930125 49.021,91.380125 49.021,86.826375 C49.021,82.450125 51.28975,81.117625 53.8285,81.117625 C54.55975,81.117625 55.72225,81.276375 56.116,81.316375 L56.15225,81.316375 L56.276,81.156375 L56.276,77.677625 C56.276,77.536375 56.34725,77.458875 56.4735,77.417625 L58.99225,77.220125 C59.136,77.240125 59.206,77.358875 59.206,77.477625 L59.206,92.155125 C59.206,92.313875 59.136,92.452625 58.976,92.472625" id="Fill-30" fill="#231F20"></path>
                    <path d="M48.840125,83.08625 C48.073875,83.10625 47.502625,83.16625 46.696375,83.225 L46.535125,83.405 L46.535125,92.4725 C46.535125,92.63375 46.482625,92.6925 46.358875,92.6925 L43.748875,92.6925 C43.641375,92.6925 43.568875,92.63375 43.568875,92.49375 L43.568875,81.95125 C43.568875,81.81375 43.622625,81.73375 43.748875,81.695 C44.963875,81.515 47.447625,81.29625 48.876375,81.2375 C48.985125,81.2375 49.038875,81.31625 49.038875,81.43625 L49.038875,82.90625 C49.038875,83.0075 48.967625,83.08625 48.840125,83.08625" id="Fill-32" fill="#231F20"></path>
                    <path d="M32.447375,75.163875 C31.836125,75.163875 31.194875,75.028875 30.629875,74.731375 L30.558625,74.632625 L30.549875,73.852625 L30.638625,73.755125 C31.403625,74.080125 31.649875,74.142625 32.162375,74.167625 C32.799875,74.198875 33.957375,74.103875 33.957375,73.276375 C33.957375,71.641375 30.541125,72.173875 30.541125,69.993875 C30.541125,68.473875 31.977375,68.208875 33.183625,68.208875 C33.776125,68.208875 34.351125,68.340125 34.666125,68.482625 L34.729875,68.562625 L34.729875,68.581375 L34.621125,69.341375 L34.552375,69.400125 C34.036125,69.243875 33.831125,69.197625 33.414875,69.165125 C32.664875,69.108875 31.649875,69.191375 31.639875,69.925125 C31.618625,71.202625 35.054875,70.921375 35.054875,73.022625 C35.054875,74.678875 33.901125,75.163875 32.447375,75.163875" id="Fill-34" fill="#231F20"></path>
                    <path d="M5.728625,72.125625 C5.728625,74.124375 4.584875,75.171875 2.873625,75.171875 C1.142375,75.171875 0.019875,74.113125 0.019875,72.149375 L0.019875,67.115625 L0.127375,66.985625 L1.046125,66.985625 L1.142375,67.115625 L1.142375,72.016875 C1.142375,73.529375 1.698625,74.113125 2.896125,74.113125 C4.007375,74.113125 4.596125,73.516875 4.596125,72.030625 L4.596125,67.115625 L4.702375,66.985625 L5.621125,66.985625 L5.739875,67.103125 L5.728625,72.125625 Z" id="Fill-36" fill="#231F20"></path>
                    <path d="M12.062875,75.074875 L11.134125,75.074875 L11.037875,74.956125 L11.037875,70.898625 C11.037875,69.592375 10.449125,69.221125 9.294125,69.221125 C8.930375,69.221125 8.396625,69.269875 8.054125,69.304875 L7.959125,69.424875 L7.959125,74.956125 L7.852875,75.074875 L6.922875,75.074875 L6.816625,74.956125 L6.816625,68.651125 L6.932875,68.508625 C7.787875,68.366125 8.751625,68.234875 9.337875,68.234875 C11.091625,68.234875 12.159125,68.804875 12.159125,70.817375 L12.159125,74.956125 L12.062875,75.074875" id="Fill-38" fill="#231F20"></path>
                    <path d="M14.374875,75.074875 L13.444875,75.074875 L13.347375,74.956125 L13.347375,68.401125 L13.453625,68.282375 L14.362375,68.282375 L14.468625,68.388625 L14.468625,74.956125 L14.374875,75.074875 Z M14.468625,67.322375 L14.374875,67.442375 L13.444875,67.442375 L13.347375,67.309875 L13.347375,66.333625 L13.444875,66.216125 L14.374875,66.216125 L14.468625,66.333625 L14.468625,67.322375 Z" id="Fill-40" fill="#231F20"></path>
                    <polygon id="Fill-42" fill="#231F20" points="20.583375 68.282875 19.664625 68.282875 19.557125 68.365375 18.064625 74.004125 17.995875 74.081625 17.929625 74.016625 16.489625 68.376625 16.382125 68.282875 15.377125 68.282875 15.269625 68.341625 15.280875 68.376625 17.225875 74.956625 17.343375 75.075375 18.583375 75.075375 18.733375 74.945375 20.659625 68.389125 20.665875 68.341625"></polygon>
                    <path d="M23.6485,69.186125 C22.601,69.186125 21.92725,69.829875 21.92725,71.149875 L22.02475,71.268625 L25.33725,71.268625 L25.45475,71.162375 C25.4235,69.829875 24.716,69.186125 23.6485,69.186125 M26.50225,72.208625 L22.03475,72.208625 L21.9385,72.329875 C21.981,73.826125 22.88975,74.159875 24.20475,74.159875 C24.69725,74.159875 25.24225,74.112375 25.8185,74.064875 L25.91475,74.148625 L25.91475,74.171125 L25.8185,74.896125 L25.68975,75.003625 C25.16725,75.088625 24.52475,75.157375 23.841,75.157375 C22.01225,75.157375 20.7835,74.314875 20.7835,71.661125 C20.7835,69.103625 22.1085,68.234875 23.71225,68.234875 C25.6685,68.234875 26.5985,69.448625 26.5985,72.088625 L26.50225,72.208625" id="Fill-44" fill="#231F20"></path>
                    <path d="M37.048125,75.074875 L36.119375,75.074875 L36.021875,74.956125 L36.021875,68.401125 L36.129375,68.282375 L37.036875,68.282375 L37.145625,68.388625 L37.145625,74.956125 L37.048125,75.074875 Z M37.145625,67.322375 L37.048125,67.442375 L36.119375,67.442375 L36.021875,67.309875 L36.021875,66.333625 L36.119375,66.216125 L37.048125,66.216125 L37.145625,66.333625 L37.145625,67.322375 Z" id="Fill-46" fill="#231F20"></path>
                    <path d="M41.6795,74.921 L41.55075,75.02725 C41.09075,75.08725 40.82325,75.136 40.4495,75.136 C39.4345,75.136 38.9845,74.63475 38.9845,73.43475 L38.9845,69.21225 L38.877,69.08975 L38.15075,69.08975 L38.04325,68.961 L38.04325,68.3885 L38.15075,68.28225 L38.8895,68.28225 L38.9845,68.161 L38.9845,66.606 L39.092,66.4635 L40.00075,66.35475 L40.117,66.4735 L40.117,68.161 L40.22575,68.28225 L41.37825,68.28225 L41.48575,68.401 L41.48575,68.97225 L41.37825,69.07975 L40.22575,69.07975 L40.117,69.21225 L40.117,73.11225 C40.117,73.80225 40.21325,74.0885 41.01575,74.0885 L41.667,74.0885 L41.7745,74.20725 L41.6795,74.921 Z" id="Fill-48" fill="#231F20"></path>
                    <path d="M29.9205,69.22525 C29.4505,69.22525 29.09925,69.2615 28.63925,69.299 L28.523,69.4165 L28.523,74.9565 L28.4255,75.07525 L27.49675,75.07525 L27.4005,74.9565 L27.4005,68.65525 L27.5055,68.5015 C28.23175,68.39275 29.0655,68.26275 29.93175,68.2265 L30.02925,68.3465 L30.02925,69.1315 L29.9205,69.22525" id="Fill-50" fill="#231F20"></path>
                    <path d="M47.791625,68.282875 L46.841625,68.282875 L46.732875,68.365375 L45.322875,74.004125 L45.257875,74.085375 L45.172875,73.992875 L43.567875,68.365375 L43.450375,68.282875 L42.455375,68.282875 L42.355375,68.347875 L42.360375,68.376625 L44.211625,74.661625 C44.321625,74.989125 44.629125,75.066625 44.719125,75.074125 L44.747875,75.074125 L44.829125,75.182875 C44.829125,75.182875 44.822875,75.269125 44.751625,75.444125 C44.520375,76.076625 43.820375,76.935375 43.549125,77.215375 L43.526625,77.276625 L43.611625,77.359125 L44.617875,77.359125 L44.766625,77.276625 C45.635375,76.324125 46.210375,74.766625 46.520375,73.587875 L47.866625,68.376625 L47.866625,68.365375 L47.791625,68.282875" id="Fill-52" fill="#231F20"></path>
                    <path d="M31.374375,76.82775 C30.848125,76.82775 27.580625,77.23025 27.231875,81.11775 C27.214375,81.27525 27.141875,81.3365 27.016875,81.3365 L25.784375,81.3365 C25.659375,81.3365 25.623125,81.39525 25.623125,81.53525 L25.623125,82.9065 C25.623125,83.0465 25.659375,83.10525 25.801875,83.10525 L26.945625,83.0865 C27.089375,83.0865 27.124375,83.1865 27.124375,83.32525 L27.124375,92.45275 C27.124375,92.6115 27.195625,92.6915 27.320625,92.6915 L29.911875,92.6915 C30.038125,92.6915 30.089375,92.6115 30.089375,92.45275 L30.089375,83.32525 C30.089375,83.1665 30.144375,83.10525 30.268125,83.10525 L31.715625,83.10525 C31.840625,83.10525 31.895625,83.02775 31.895625,82.9065 L31.895625,81.53525 C31.895625,81.41525 31.840625,81.3365 31.699375,81.3365 L30.216875,81.3365 C30.054375,81.3365 30.038125,81.27525 30.038125,81.11775 C30.194375,79.7915 30.990625,78.79775 32.043125,78.3515 L32.095625,78.32275 L32.121875,78.304 L32.149375,78.28025 L32.149375,78.279 L32.161875,78.2615 L32.171875,78.24275 L32.174375,78.2365 L32.155625,78.10775 L32.138125,78.064 L31.596875,76.98275 L31.374375,76.82775" id="Fill-54" fill="#231F20"></path>
                    <path d="M52.5975,69.154375 C51.53125,69.154375 50.65875,69.793125 50.65875,71.745625 C50.65875,73.451875 51.4575,74.175625 52.61875,74.175625 C53.78125,74.175625 54.58875,73.428125 54.58875,71.745625 C54.58875,69.781875 53.69625,69.154375 52.5975,69.154375 M52.5975,75.180625 C51.01375,75.180625 49.52,74.068125 49.52,71.745625 C49.52,69.331875 50.8525,68.218125 52.60875,68.218125 C54.37375,68.218125 55.7075,69.308125 55.7075,71.745625 C55.7075,74.043125 54.26625,75.180625 52.5975,75.180625" id="Fill-56" fill="#231F20"></path>
                    <path d="M58.933,65.99275 C58.62925,65.9965 56.973,66.439 56.81675,68.154 L56.688,68.28275 L55.95675,68.28275 L55.86175,68.404 L55.86175,68.97275 L55.96675,69.0915 L56.64675,69.0915 L56.753,69.234 L56.753,74.9315 L56.86925,75.07525 L57.788,75.07525 L57.893,74.9315 L57.893,69.209 L57.998,69.08025 L59.09925,69.08025 L59.2055,68.96275 L59.2055,68.404 L59.088,68.28275 L57.9955,68.28275 L57.89925,68.154 C58.0255,67.374 58.5805,66.8315 59.223,66.57775 L59.23925,66.474 L59.0205,66.034 L58.933,65.99275" id="Fill-58" fill="#231F20"></path>
                    <path d="M29.228375,59.0055 C29.228375,59.0055 34.463375,56.4405 40.013375,50.91425 L39.969625,50.85425 C39.815875,50.653 39.633375,50.473 39.420875,50.318 C38.223375,49.448 36.548375,49.71425 35.678375,50.9105 C34.464625,52.58675 34.838375,53.413 33.844625,54.78425 C33.437125,55.34675 32.650875,55.46925 32.089625,55.06425 C31.528375,54.6555 31.403375,53.86925 31.810875,53.30675 C32.805875,51.938 33.708375,52.038 34.923375,50.363 C35.793375,49.16675 35.525875,47.4905 34.328375,46.623 C34.108375,46.463 33.873375,46.34175 33.629625,46.258 C32.249625,45.78175 30.767125,45.52175 29.228375,45.5205 C27.687125,45.51925 26.209625,45.78175 24.828375,46.258 C24.583375,46.3405 24.348375,46.46175 24.129625,46.6205 C22.929625,47.4905 22.663375,49.16675 23.532125,50.363 C24.745875,52.03675 25.652125,51.938 26.647125,53.30675 C27.053375,53.86925 26.928375,54.6555 26.367125,55.063 C25.804625,55.47175 25.018375,55.3455 24.610875,54.78425 C23.617125,53.41175 23.992125,52.58675 22.775875,50.9105 C21.907125,49.71425 20.233375,49.448 19.034625,50.31675 C18.822125,50.473 18.639625,50.653 18.485875,50.85175 L18.442125,50.91425 C23.992125,56.4405 29.228375,59.0055 29.228375,59.0055" id="Fill-60" fill="#D71921"></path>
                    <path d="M32.86,56.716625 C32.115,55.521625 30.8025,54.720375 29.29125,54.720375 C27.75625,54.720375 26.425,55.550375 25.68875,56.777875 C27.81625,58.210375 29.22875,58.904125 29.22875,58.904125 C29.22875,58.904125 30.68,58.194125 32.86,56.716625" id="Fill-62" fill="#F3C615"></path>
                    <path d="M52.661,25.148125 C52.73475,24.478125 52.78975,23.793125 52.831,23.099375 L48.7435,20.629375 C47.7035,20.000625 46.331,20.325625 45.471,21.330625 L42.17975,20.086875 C42.19725,18.745625 41.35725,17.583125 40.14225,17.386875 L33.59475,16.328125 C32.41975,16.138125 31.286,16.915625 30.8485,18.128125 L27.396,18.128125 C26.95725,16.915625 25.8235,16.138125 24.6485,16.326875 L18.101,17.386875 C16.886,17.583125 16.046,18.745625 16.0635,20.086875 L12.77225,21.330625 C11.91225,20.325625 10.53975,20.000625 9.49975,20.629375 L5.61475,22.978125 C5.656,23.671875 5.71225,24.353125 5.7835,25.025625 L10.44975,22.204375 L10.56975,22.174375 C10.10975,22.410625 10.27975,22.875625 10.421,23.253125 C10.5585,23.615625 10.701,23.990625 11.08975,23.990625 L11.3035,23.948125 L6.061,27.119375 C6.161,27.764375 6.27725,28.394375 6.4035,29.016875 L6.7285,28.866875 L12.40475,25.434375 C13.191,24.960625 13.57225,24.061875 13.5085,23.123125 L16.686,21.921875 C17.2435,22.656875 18.10475,23.074375 18.996,22.930625 L25.54475,21.871875 C26.47725,21.720625 27.181,20.995625 27.45725,20.063125 L30.78725,20.063125 C31.06225,20.995625 31.766,21.720625 32.6985,21.871875 L39.24725,22.930625 C40.13725,23.074375 40.99975,22.656875 41.55725,21.921875 L44.73475,23.123125 C44.66975,24.061875 45.05225,24.959375 45.8385,25.434375 L51.51475,28.866875 C51.68225,28.968125 51.85725,29.036875 52.03725,29.090625 C52.1635,28.481875 52.2785,27.868125 52.3785,27.239375 L46.93975,23.948125 L47.1535,23.990625 C47.54225,23.990625 47.68475,23.615625 47.82225,23.253125 C47.96475,22.875625 48.13225,22.410625 47.6735,22.174375 L47.79225,22.204375 L52.661,25.148125 Z M18.911,21.079375 L19.00725,21.044375 C19.5835,20.824375 19.386,20.301875 19.24225,19.919375 C19.1035,19.556875 18.96225,19.184375 18.57225,19.184375 L18.3435,19.230625 L18.39475,19.203125 L24.7785,18.171875 C24.411,18.304375 24.40725,18.751875 24.40725,19.094375 C24.40725,19.503125 24.40725,20.063125 25.0235,20.063125 L25.20225,20.063125 L18.911,21.079375 Z M39.66975,19.184375 C39.281,19.184375 39.13975,19.556875 39.001,19.919375 C38.85725,20.301875 38.65975,20.824375 39.236,21.044375 L39.331,21.078125 L33.03975,20.063125 L33.21975,20.063125 C33.83475,20.063125 33.83475,19.503125 33.83475,19.094375 C33.83475,18.733125 33.831,18.303125 33.46975,18.171875 L39.8485,19.203125 L39.89975,19.230625 L39.66975,19.184375 Z" id="Fill-64" fill="#A6A8AB"></path>
                    <path d="M32.873375,56.02575 C32.648375,55.74075 32.392125,55.48575 32.110875,55.26075 C32.392125,55.48575 32.649625,55.74075 32.873375,56.02575" id="Fill-66" fill="#231F20"></path>
                    <path d="M29.96075,54.31925 C30.09825,54.3405 30.2345,54.36925 30.36575,54.40175 C30.232,54.36925 30.09825,54.3405 29.96075,54.31925" id="Fill-68" fill="#231F20"></path>
                    <path d="M32.957625,56.138 C33.041375,56.2505 33.120125,56.368 33.192625,56.488 C33.120125,56.36675 33.041375,56.2505 32.957625,56.138" id="Fill-70" fill="#231F20"></path>
                    <path d="M31.527,54.86725 C31.21325,54.6885 30.87575,54.54475 30.52075,54.44225 C30.87575,54.54475 31.21325,54.6885 31.527,54.86725" id="Fill-72" fill="#231F20"></path>
                    <path d="M29.79725,54.29475 C29.60975,54.271 29.421,54.256 29.22725,54.256 C28.1035,54.256 27.0735,54.6535 26.26975,55.316 C27.0735,54.6535 28.1035,54.256 29.22725,54.256 C29.421,54.256 29.60975,54.271 29.79725,54.29475" id="Fill-74" fill="#231F20"></path>
                    <path d="M31.99575,55.176125 C31.88325,55.092375 31.76825,55.014875 31.6495,54.942375 C31.76825,55.014875 31.88325,55.094875 31.99575,55.176125" id="Fill-76" fill="#231F20"></path>
                    <path d="M33.452,47.316 C33.2695,47.21975 33.082,47.161 32.8695,47.1335 C32.69075,47.111 32.46825,47.1285 32.28325,47.1535 C31.90575,47.21725 31.55325,47.33725 31.2145,47.4585 C30.542,47.7035 29.8845,47.9635 29.22825,47.96225 C28.567,47.9635 27.9145,47.7035 27.2395,47.4585 C26.8995,47.33725 26.5495,47.21725 26.1695,47.1535 C25.7945,47.08975 25.357,47.11975 25.00325,47.31725 C24.647,47.5135 24.3745,47.84475 24.2645,48.23475 C24.15575,48.61225 24.202,49.03475 24.3995,49.37475 C24.82075,49.99475 25.3845,50.46725 26.0095,50.82225 L25.99825,50.8135 L26.0095,50.821 C26.222,50.96475 26.4545,51.12475 26.702,51.321 L26.70325,51.321 C26.70325,51.321 26.17075,50.81225 25.86825,50.3735 C25.562,49.93725 25.27075,48.82725 26.28575,49.0735 C27.30075,49.321 27.46325,49.70725 29.2295,49.70725 C30.99325,49.70725 31.15825,49.321 32.172,49.07475 C33.18825,48.82725 32.8945,49.93725 32.59075,50.3735 C32.287,50.81225 31.75575,51.321 31.75575,51.321 L31.757,51.321 C32.002,51.126 32.2345,50.966 32.44825,50.821 L32.4495,50.81975 C33.07575,50.46725 33.63575,49.996 34.06075,49.37225 C34.46825,48.69225 34.1945,47.69475 33.452,47.316" id="Fill-78" fill="#231F20"></path>
                    <path d="M29.227125,54.25575 C29.374625,54.25575 29.517125,54.272 29.662125,54.2845 C29.653375,53.8695 29.650875,53.452 29.619625,53.03575 C29.570875,52.3845 29.498375,51.732 29.354625,51.07825 C29.199625,51.7295 29.117125,52.38075 29.059625,53.03325 C29.022125,53.44575 29.014625,53.85575 28.998375,54.267 L29.227125,54.25575" id="Fill-80" fill="#231F20"></path>
                    <path d="M38.923125,45.344625 C37.974375,47.007125 36.938125,48.605875 35.866875,50.178375 C35.714375,50.317125 35.570625,50.470875 35.446875,50.642125 C35.169375,51.023375 34.984375,51.359625 34.833125,51.672125 C34.678125,51.892125 34.524375,52.114625 34.368125,52.334625 C33.760625,53.179625 33.140625,54.015875 32.513125,54.847125 L32.259375,54.730875 L32.018125,54.465875 C32.595625,53.608375 33.183125,52.758375 33.783125,51.914625 L33.901875,51.749625 C34.286875,51.445875 34.704375,51.054625 35.155625,50.432125 C35.383125,50.122125 35.540625,49.775875 35.630625,49.414625 C36.681875,48.025875 37.765625,46.658375 38.921875,45.344625 C37.609375,46.203375 36.316875,47.089625 35.030625,47.983375 C35.063125,48.092125 35.096875,48.199625 35.115625,48.314625 C35.215625,48.944625 35.064375,49.577125 34.689375,50.093375 C34.079375,50.934625 33.551875,51.308375 33.043125,51.668375 C32.568125,52.002125 32.078125,52.349625 31.576875,53.037125 C31.150625,53.627125 31.203125,54.415875 31.656875,54.945875 C31.856875,55.069625 32.044375,55.212125 32.225625,55.362125 C32.880625,55.642125 33.646875,55.445875 34.076875,54.853375 C34.578125,54.163375 34.758125,53.589625 34.928125,53.034625 C35.113125,52.439625 35.303125,51.822125 35.914375,50.982125 C36.323125,50.418375 36.930625,50.087125 37.575625,50.013375 C38.041875,48.463375 38.499375,46.910875 38.923125,45.347125 L38.923125,45.344625 Z" id="Fill-82" fill="#231F20"></path>
                    <path d="M24.844875,55.278625 C25.271125,55.527375 25.778625,55.546125 26.223625,55.359875 C26.404875,55.204875 26.599875,55.068625 26.803625,54.942375 C27.254875,54.412375 27.306125,53.624875 26.878625,53.038625 C26.379875,52.348625 25.887375,52.001125 25.416125,51.664875 C24.904875,51.304875 24.377375,50.933625 23.768625,50.093625 C23.392375,49.576125 23.241125,48.944875 23.339875,48.314875 C23.358625,48.199875 23.392375,48.091125 23.426125,47.981125 C22.138625,47.088625 20.847375,46.202375 19.532375,45.344875 L19.531125,45.344875 C20.692375,46.658625 21.774875,48.024875 22.827375,49.416125 C22.917375,49.777375 23.074875,50.122375 23.301125,50.431125 C23.748625,51.049875 24.163625,51.441125 24.548625,51.743625 L24.672375,51.916125 C25.272375,52.757375 25.859875,53.609875 26.438625,54.467375 L26.196125,54.728625 L25.939875,54.842375 C25.312375,54.013625 24.693625,53.177375 24.086125,52.334875 C23.932375,52.117375 23.779875,51.897375 23.627375,51.678625 C23.476125,51.362375 23.288625,51.026125 23.009875,50.642375 C22.886125,50.468625 22.742375,50.313625 22.586125,50.174875 C21.514875,48.601125 20.481125,47.004875 19.531125,45.344875 C19.954875,46.909875 20.414875,48.462375 20.882375,50.012375 C21.206125,50.049875 21.526125,50.151125 21.817375,50.322375 C22.103625,50.489875 22.348625,50.712375 22.541125,50.981125 C23.152375,51.821125 23.344875,52.439875 23.527375,53.033625 C23.699875,53.588625 23.877375,54.162375 24.377375,54.852375 C24.504875,55.027375 24.661125,55.169875 24.844875,55.278625" id="Fill-84" fill="#231F20"></path>
                    <path d="M50.2745,13.403625 L47.99325,18.327375 C44.5595,16.737375 40.88825,15.572375 37.05075,14.894875 L37.9945,9.547375 C35.1195,9.039875 32.1695,8.783625 29.22825,8.783625 L29.22075,8.783625 C27.867,8.783625 26.4995,8.839875 25.1545,8.947375 L25.592,14.357375 C21.69075,14.673625 17.93075,15.483625 14.3745,16.734875 L12.57325,11.617375 C10.15075,12.469875 7.80075,13.514875 5.53825,14.731125 L5.53825,20.274875 C5.53825,21.301125 5.58075,22.297375 5.64825,23.278625 L9.6845,20.837375 C9.982,20.657375 10.312,20.566125 10.6695,20.566125 C11.24825,20.566125 11.81325,20.818625 12.26575,21.234875 L10.9495,21.732375 L10.67075,21.687375 C10.52075,21.687375 10.38075,21.724875 10.26325,21.794875 L5.75075,24.524875 C5.8445,25.507375 5.9595,26.472375 6.1145,27.407375 L11.63825,24.067375 L11.862,23.831125 L13.15325,23.343625 L13.12575,23.657375 C13.017,24.249875 12.69575,24.736125 12.21825,25.024875 L6.542,28.458625 L6.332,28.548625 C7.65075,35.361125 10.492,40.936125 13.74575,45.361125 C14.212,45.506125 14.682,45.646125 15.1545,45.782375 L15.13575,45.813625 L15.1595,45.787375 L15.1545,45.782375 L7.27325,30.396125 L20.13575,41.947375 C19.36575,39.216125 18.71075,36.447375 18.89325,33.392375 C18.88825,30.399875 19.7195,27.124875 17.632,24.842375 C20.712,26.786125 20.87075,29.726125 21.86575,32.378625 C22.67825,35.096125 24.32325,37.528625 26.0845,39.922375 L26.06325,39.929875 L26.0845,39.926125 L26.0845,39.922375 L29.22825,22.922375 L32.37075,39.922375 C33.427,37.289875 34.5995,34.694875 36.60575,32.386125 C38.427,30.012375 41.0845,27.923625 40.82325,24.842375 C42.077,28.261125 40.41075,30.687375 39.5795,33.397375 C38.56575,36.044875 38.38575,38.977375 38.32075,41.947375 L38.31575,41.946125 L38.32075,41.948625 L38.32075,41.947375 L51.18325,30.396125 L43.30075,45.782375 L43.29575,45.787375 L43.32075,45.813625 L43.30075,45.782375 C43.91825,45.418625 44.54075,45.061125 45.1745,44.719875 C48.22075,40.419875 50.8445,35.081125 52.107,28.633625 C51.967,28.588625 51.82825,28.534875 51.702,28.457375 L46.02575,25.024875 C45.54825,24.736125 45.22575,24.249875 45.117,23.656125 L45.09075,23.343625 L46.36825,23.826125 L46.6045,24.067375 L52.2795,27.499875 L52.3245,27.517375 C52.48075,26.584875 52.597,25.623625 52.6945,24.647375 L47.9795,21.794875 C47.862,21.724875 47.722,21.687375 47.572,21.687375 L47.29325,21.732375 L45.977,21.234875 C46.4295,20.818625 46.9945,20.566125 47.57325,20.566125 C47.9295,20.566125 48.262,20.657375 48.55825,20.837375 L52.79825,23.399875 C52.86825,22.381125 52.917,21.344875 52.917,20.274875 L52.917,14.729875 C52.0495,14.262375 51.1695,13.818625 50.2745,13.403625 Z M33.24075,16.559875 L33.537,16.583625 L40.08575,17.643625 C40.637,17.731125 41.11825,18.062375 41.44075,18.571125 C41.64575,18.894875 41.7595,19.266125 41.802,19.656125 L40.48075,19.157375 C40.3395,18.939875 40.142,18.784875 39.907,18.747375 L33.3595,17.687375 C33.15325,17.654875 32.94075,17.719875 32.75075,17.852375 L31.317,17.852375 C31.70825,17.078625 32.44075,16.559875 33.24075,16.559875 Z M16.80325,18.571125 C17.12325,18.062375 17.60575,17.731125 18.15825,17.643625 L24.70575,16.583625 L25.002,16.559875 C25.802,16.559875 26.5345,17.078625 26.92575,17.852375 L25.49575,17.852375 C25.3045,17.719875 25.092,17.653625 24.8845,17.688625 L18.33575,18.747375 C18.102,18.784875 17.9045,18.939875 17.762,19.157375 L16.442,19.656125 C16.48325,19.266125 16.59825,18.894875 16.80325,18.571125 Z M11.2895,23.709875 L11.0895,23.751125 C10.81825,23.751125 10.70575,23.507375 10.5545,23.106125 C10.37075,22.622375 10.29075,22.318625 10.70575,22.162375 L18.37325,19.264875 L18.57325,19.223625 C18.8445,19.223625 18.957,19.468625 19.10825,19.868625 C19.282,20.323625 19.36825,20.656125 18.957,20.811125 L11.2895,23.709875 Z M25.487,21.414875 L18.9395,22.473625 L18.64075,22.497375 C18.08575,22.497375 17.5645,22.241125 17.1645,21.827375 L18.43575,21.346125 L18.64575,21.377375 L18.76075,21.368625 L25.307,20.309875 C25.4345,20.288625 25.55075,20.223625 25.6595,20.137375 L27.017,20.137375 C26.7345,20.804875 26.1845,21.302375 25.487,21.414875 Z M25.02325,19.821125 C24.58075,19.821125 24.54825,19.478625 24.54825,18.996125 C24.54825,18.509875 24.58075,18.168625 25.02325,18.168625 L33.2195,18.168625 C33.66325,18.168625 33.6945,18.481125 33.6945,18.996125 C33.6945,19.478625 33.662,19.821125 33.2195,19.821125 L25.02325,19.821125 Z M39.3045,22.473625 L32.75575,21.414875 C32.20575,21.326125 31.72325,20.996125 31.40075,20.486125 C31.332,20.376125 31.277,20.257375 31.22575,20.137375 L32.56575,20.137375 C32.6745,20.226125 32.79825,20.287375 32.93575,20.309875 L39.482,21.367375 L39.597,21.377375 L39.807,21.346125 L41.07075,21.823625 C40.59575,22.309875 39.95575,22.579875 39.3045,22.473625 Z M47.53825,22.162375 C47.95325,22.318625 47.87075,22.622375 47.6895,23.107375 C47.537,23.507375 47.42575,23.751125 47.15325,23.751125 L46.9545,23.709875 L39.28575,20.811125 C38.87325,20.654875 38.962,20.322375 39.1345,19.868625 C39.28575,19.468625 39.397,19.223625 39.67075,19.223625 L39.87075,19.264875 L47.53825,22.162375 Z" id="Fill-86" fill="#231F20"></path>
                    <path d="M40.196375,50.5765 C40.020125,50.3465 39.816375,50.14775 39.592625,49.98525 C38.245125,49.0065 36.405125,49.32275 35.446375,50.6415 C34.780125,51.56025 34.566375,52.254 34.377625,52.86525 C34.211375,53.399 34.055125,53.9015 33.611375,54.514 C33.297625,54.94525 32.695125,55.04525 32.258875,54.73025 C31.828875,54.4165 31.732625,53.809 32.045125,53.3765 C32.490125,52.76525 32.921375,52.46025 33.375125,52.139 C33.898875,51.769 34.491375,51.35025 35.156375,50.43275 C35.622625,49.7915 35.810125,49.0065 35.687625,48.22525 C35.561375,47.4415 35.140125,46.75275 34.497625,46.28775 L34.255125,46.12775 C34.086375,46.03025 33.908875,45.949 33.723875,45.88525 C32.272625,45.38525 30.761375,45.13025 29.228875,45.13025 C27.697625,45.129 26.186375,45.384 24.735125,45.884 C24.457625,45.98025 24.196375,46.11275 23.958875,46.28525 C23.317625,46.7515 22.895125,47.44025 22.771375,48.224 C22.646375,49.0065 22.833875,49.79025 23.298875,50.43275 C23.967625,51.35025 24.558875,51.76775 25.081375,52.139 C25.536375,52.46025 25.967625,52.764 26.413875,53.3765 C26.726375,53.809 26.630125,54.4165 26.196375,54.729 C25.776375,55.03275 25.150125,54.93775 24.843875,54.514 C24.401375,53.9015 24.243875,53.39775 24.078875,52.86525 C23.890125,52.25275 23.675125,51.56025 23.010125,50.64275 C22.768875,50.30775 22.463875,50.0315 22.110125,49.82275 C21.092625,49.229 19.818875,49.2915 18.866375,49.98275 C18.636375,50.149 18.432625,50.34775 18.257625,50.57775 L18.240125,50.604 C18.376375,50.744 18.513875,50.884 18.652625,51.019 L18.715125,50.92775 C18.858875,50.74525 19.021375,50.584 19.205125,50.449 C19.972625,49.89275 21.000125,49.84275 21.817625,50.32275 C22.102625,50.489 22.350125,50.71025 22.541375,50.9815 C23.152625,51.82275 23.343875,52.439 23.527625,53.03525 C23.701375,53.59025 23.876375,54.164 24.377625,54.854 C24.503875,55.02775 24.660125,55.17025 24.846375,55.27775 C25.271375,55.52775 25.778875,55.5465 26.222625,55.36025 C26.403875,55.2065 26.598875,55.06775 26.803875,54.94275 C27.253875,54.41025 27.305125,53.624 26.880125,53.03775 C26.378875,52.349 25.888875,52.00025 25.416375,51.6665 C24.905125,51.3065 24.377625,50.934 23.767625,50.09275 C23.393875,49.5765 23.241375,48.944 23.340125,48.31275 C23.442625,47.68275 23.780125,47.12775 24.296375,46.75275 C24.490125,46.61525 24.700125,46.50525 24.923875,46.429 C26.315125,45.95025 27.761375,45.7065 29.228875,45.7065 C30.695125,45.7065 32.146375,45.95275 33.536375,46.4315 C33.757625,46.50525 33.966375,46.614 34.158875,46.754 C34.676375,47.13025 35.016375,47.684 35.116375,48.31275 C35.217625,48.94525 35.066375,49.57775 34.690125,50.094 C34.078875,50.934 33.553875,51.3065 33.042625,51.6665 C32.568875,52.00275 32.077625,52.349 31.577625,53.03775 C31.152625,53.62525 31.205125,54.4165 31.655125,54.9465 C31.856375,55.07025 32.045125,55.21025 32.223875,55.36275 C32.881375,55.64275 33.647625,55.4465 34.077625,54.85275 C34.578875,54.16275 34.756375,53.59025 34.927625,53.03525 C35.115125,52.439 35.303875,51.82275 35.913875,50.9815 C36.685125,49.91775 38.162625,49.659 39.252625,50.4515 C39.435125,50.584 39.598875,50.744 39.738875,50.92775 L39.803875,51.019 C39.941375,50.884 40.078875,50.744 40.217625,50.604 L40.196375,50.5765" id="Fill-88" fill="#231F20"></path>
                    <path d="M22.147125,53.081375 C22.469625,53.505125 22.790875,54.165125 22.790875,54.165125 C22.680875,53.872625 22.598375,53.600125 22.527125,53.355125 L22.525875,53.353875 L22.527125,53.355125 C22.380875,52.648875 22.107125,51.968875 21.644625,51.375125 C21.380875,51.085125 20.997125,50.912625 20.599625,50.900125 C20.195875,50.883875 19.799625,51.036375 19.499625,51.321375 L19.267125,51.611375 C19.782125,52.101375 20.293375,52.570125 20.794625,53.006375 C20.917125,52.082625 21.832125,52.670125 22.147125,53.081375" id="Fill-90" fill="#231F20"></path>
                    <path d="M38.94275,51.30525 C38.644,51.02525 38.244,50.87025 37.84025,50.88775 C37.45025,50.90275 37.0615,51.07275 36.79775,51.36775 C36.34025,51.959 36.064,52.64275 35.92025,53.34775 L35.9265,53.33525 L35.92275,53.3465 C35.849,53.59275 35.769,53.86525 35.66025,54.159 C35.66025,54.159 35.979,53.4965 36.30275,53.07025 C36.6165,52.65775 37.5415,52.064 37.65525,53.01275 C38.15775,52.574 38.67025,52.10525 39.1865,51.61275 L38.94275,51.30525" id="Fill-92" fill="#231F20"></path>
                    <path d="M26.433,56.11125 C26.79425,55.75 27.383,55.75 27.7455,56.11125 C28.103,56.4725 28.10425,57.06 27.74425,57.41875 C27.563,57.5975 27.3305,57.6875 27.09425,57.69 C27.63175,58.02 28.07425,58.2775 28.423,58.47375 C28.57925,58.1825 28.87425,57.9775 29.22675,57.9775 C29.5805,57.9775 29.8755,58.1825 30.03175,58.47375 C30.3805,58.2775 30.82425,58.02125 31.35925,57.69 C31.12425,57.68875 30.8905,57.59875 30.71425,57.42125 C30.35175,57.05875 30.35175,56.4725 30.713,56.11125 C31.07425,55.75 31.6605,55.74875 32.02425,56.11125 C32.3055,56.395 32.358,56.81375 32.19675,57.1575 C32.45175,56.99125 32.7205,56.81125 33.00175,56.61875 C32.6255,55.99875 32.103,55.465 31.45925,55.08875 C30.78675,54.69375 30.013,54.485 29.228,54.485 C28.04675,54.485 26.938,54.94375 26.10175,55.77875 C25.84675,56.03375 25.6405,56.3225 25.45925,56.6225 C25.73675,56.81375 26.003,56.99125 26.258,57.1575 C26.09675,56.81375 26.14925,56.395 26.433,56.11125 M29.22675,54.95125 C29.7405,54.95125 30.15425,55.3675 30.1555,55.87875 C30.1555,56.39 29.738,56.80625 29.22675,56.805 C28.71425,56.805 28.3005,56.39125 28.3005,55.8775 C28.30175,55.36625 28.7155,54.9525 29.22675,54.95125" id="Fill-94" fill="#231F20"></path>
                    <path d="M31.80775,54.49625 C31.02775,54.04 30.13525,53.79625 29.229,53.79625 C27.86525,53.79625 26.58025,54.32875 25.61525,55.29375 C25.3315,55.57625 25.09025,55.89 24.884,56.22375 C25.01275,56.3125 25.13775,56.4 25.26275,56.4875 C26.07775,55.15 27.54775,54.25625 29.22775,54.25625 C30.08525,54.25625 30.88775,54.4875 31.57525,54.89125 C32.239,55.28125 32.79275,55.83125 33.19275,56.4875 C33.31525,56.40125 33.44025,56.31625 33.56525,56.22875 C33.134,55.52625 32.53775,54.925 31.80775,54.49625" id="Fill-96" fill="#231F20"></path>
                    <g id="Group-100" transform="translate(3.750000, 1.045625)">
                        <mask id="mask-4" fill="white">
                            <use xlink:href="#path-3"></use>
                        </mask>
                        <g id="Clip-99"></g>
                        <path d="M49.1685,0.93225 L49.1685,19.22975 C49.1685,46.26225 25.4785,57.85975 25.4785,57.85975 C25.4785,57.85975 1.7885,46.26225 1.7885,19.22975 L1.7885,0.93225 L49.1685,0.93225 Z M49.896,0.20475 L49.1685,0.20475 L1.7885,0.20475 L1.061,0.20475 L1.061,0.93225 L1.061,19.22975 C1.061,25.49975 2.32725,31.46975 4.826,36.971 C6.826,41.3685 9.60975,45.47725 13.10225,49.181 C19.04725,55.48225 24.91225,58.39225 25.1585,58.511 L25.4785,58.6685 L25.7985,58.511 C26.04475,58.39225 31.906,55.48225 37.851,49.181 C41.34475,45.47725 44.131,41.3685 46.12725,36.971 C48.62725,31.46975 49.896,25.49975 49.896,19.22975 L49.896,0.93225 L49.896,0.20475 Z" id="Fill-98" fill="#231F20" mask="url(#mask-4)"></path>
                    </g>
                </g>
            </g>
        </g>
    </g>
</svg>